<svg width="512" height="512" viewBox="0 0 512 512" fill="none" xmlns="http://www.w3.org/2000/svg" role="img" aria-label="AfriChat mark">
  <rect width="512" height="512" rx="128" fill="none"/>
  <rect x="104" y="104" width="304" height="304" rx="88" fill="#006A41"/>
  <path d="M162 170C162 154.536 174.536 142 190 142H322C337.464 142 350 154.536 350 170V286C350 301.464 337.464 314 322 314H250L198 354V314H190C174.536 314 162 301.464 162 286V170Z" fill="white"/>
  <path d="M214 210C214 204.477 218.477 200 224 200H288C293.523 200 298 204.477 298 210C298 215.523 293.523 220 288 220H224C218.477 220 214 215.523 214 210Z" fill="#006A41"/>
  <path d="M214 244C214 238.477 218.477 234 224 234H270C275.523 234 280 238.477 280 244C280 249.523 275.523 254 270 254H224C218.477 254 214 249.523 214 244Z" fill="#006A41"/>
  <circle cx="335" cy="189" r="14" fill="#F5A623"/>
</svg>
